<?xml version="1.0" encoding="iso-8859-1"?>
<!-- Uploaded to: SVG Repo, www.svgrepo.com, Generator: SVG Repo Mixer Tools -->
<svg height="800px" width="800px" version="1.1" id="Layer_1" xmlns="http://www.w3.org/2000/svg" xmlns:xlink="http://www.w3.org/1999/xlink" 
	 viewBox="0 0 512 512" xml:space="preserve">
<path style="fill:#A2CCDB;" d="M158.989,309.895H29.642c-11.906,0-21.558-9.651-21.558-21.558V169.768
	c0-11.906,9.651-21.558,21.558-21.558h129.347V309.895z"/>
<path style="fill:#D7F3FF;" d="M14.968,154.007c3.85-3.586,8.998-5.797,14.674-5.797h129.347v45.385l-34.619,29.153
	c-8.024,6.757-19.748,6.757-27.772,0L14.968,154.007z"/>
<path style="fill:#F4C064;" d="M385.347,503.916h-64.674v-204.8h64.674V503.916z"/>
<path style="fill:#CEA05D;" d="M385.347,363.789h-64.674v-53.895h64.674V363.789z"/>
<path style="fill:#5B7A7F;" d="M202.105,105.095H460.8c23.812,0,43.116,19.304,43.116,43.116v172.463
	c0,5.953-4.826,10.779-10.779,10.779H169.768c-5.953,0-10.779-4.826-10.779-10.779V148.211
	C158.989,124.399,178.293,105.095,202.105,105.095z"/>
<path style="fill:#769CA5;" d="M503.916,148.211H158.989c0-23.812,19.304-43.116,43.116-43.116H460.8
	C484.612,105.095,503.916,124.399,503.916,148.211z"/>
<path style="fill:#E55D30;" d="M256,218.274c0,8.929-7.239,16.168-16.168,16.168l0,0c-8.929,0-16.168-7.239-16.168-16.168V40.421
	H256V218.274z"/>
<path style="fill:#FF8355;" d="M304.505,61.979h-80.842V18.863c0-5.953,4.826-10.779,10.779-10.779h70.063
	c14.883,0,26.947,12.065,26.947,26.947l0,0C331.453,49.914,319.388,61.979,304.505,61.979z"/>
<path style="fill:#FFC248;" d="M417.684,256h32.337c5.953,0,10.779,4.826,10.779,10.779v10.779c0,5.953-4.826,10.779-10.779,10.779
	h-32.337c-5.953,0-10.779-4.826-10.779-10.779v-10.779C406.905,260.826,411.731,256,417.684,256z"/>
<path style="fill:#FFE954;" d="M460.8,266.779h-53.895c0-5.953,4.826-10.779,10.779-10.779h32.337
	C455.974,256,460.8,260.826,460.8,266.779z"/>
<path d="M493.137,339.537c10.401,0,18.863-8.463,18.863-18.863V148.211c0-28.231-22.969-51.2-51.2-51.2H264.084V70.063h40.421
	c19.317,0,35.032-15.716,35.032-35.032S323.822,0,304.505,0h-70.063c-10.401,0-18.863,8.459-18.863,18.858v78.153h-13.474
	c-25.483,0-46.676,18.711-50.562,43.116H29.642C13.298,140.126,0,153.423,0,169.768v75.453c0,4.465,3.618,8.084,8.084,8.084
	s8.084-3.62,8.084-8.084v-75.453c0-1.296,0.184-2.55,0.527-3.737l74.695,62.901c11.064,9.317,27.122,9.318,38.188,0l21.327-17.96
	v90.839H29.642c-7.43,0-13.474-6.044-13.474-13.474v-10.779c0-4.465-3.618-8.084-8.084-8.084S0,273.093,0,277.558v10.779
	c0,16.345,13.298,29.642,29.642,29.642h121.263v2.695c0,10.401,8.463,18.863,18.863,18.863h142.821v156.295H202.105
	c-4.466,0-8.084,3.62-8.084,8.084S197.64,512,202.105,512h140.126c4.466,0,8.084-3.62,8.084-8.084s-3.618-8.084-8.084-8.084h-13.474
	V339.537h48.505v156.295h-2.695c-4.466,0-8.084,3.62-8.084,8.084s3.618,8.084,8.084,8.084h129.347c4.466,0,8.084-3.62,8.084-8.084
	s-3.618-8.084-8.084-8.084H393.432V339.537H493.137z M150.905,189.835l-31.742,26.73c-5.029,4.235-12.329,4.235-17.358,0
	l-71.57-60.269h120.67V189.835z M231.747,105.095V18.858c0-1.483,1.208-2.689,2.695-2.689h70.063
	c10.401,0,18.863,8.463,18.863,18.863s-8.463,18.863-18.863,18.863h-59.284c-4.466,0-8.084,3.62-8.084,8.084
	s3.618,8.084,8.084,8.084h2.695v148.211c0,4.458-3.626,8.084-8.084,8.084s-8.084-3.626-8.084-8.084V105.095z M169.768,323.368
	c-1.486,0-2.695-1.209-2.695-2.695v-10.779V193.644c0-0.036,0-0.07,0-0.106v-45.328c0-19.316,15.715-35.032,35.032-35.032h13.474
	v105.095c0,13.373,10.88,24.253,24.253,24.253c13.372,0,24.253-10.879,24.253-24.253V113.179H460.8
	c16.535,0,30.431,11.515,34.091,26.947H320.674c-4.466,0-8.084,3.62-8.084,8.084c0,4.465,3.618,8.084,8.084,8.084h175.158v164.379
	c0,1.485-1.208,2.695-2.695,2.695H169.768z M450.021,247.916h-32.337c-10.401,0-18.863,8.463-18.863,18.863v10.779
	c0,10.401,8.463,18.863,18.863,18.863h32.337c10.401,0,18.863-8.463,18.863-18.863v-10.779
	C468.884,256.378,460.422,247.916,450.021,247.916z M452.716,277.558c0,1.485-1.208,2.695-2.695,2.695h-32.337
	c-1.486,0-2.695-1.209-2.695-2.695v-10.779c0-1.485,1.208-2.695,2.695-2.695h32.337c1.486,0,2.695,1.209,2.695,2.695V277.558z"/>
</svg>