<?xml version="1.0" encoding="iso-8859-1"?>
<!-- Uploaded to: SVG Repo, www.svgrepo.com, Generator: SVG Repo Mixer Tools -->
<svg height="800px" width="800px" version="1.1" id="Layer_1" xmlns="http://www.w3.org/2000/svg" xmlns:xlink="http://www.w3.org/1999/xlink" 
	 viewBox="0 0 512 512" xml:space="preserve">
<path style="fill:#99774F;" d="M503.916,105.095V460.8c0,23.812-19.304,43.116-43.116,43.116H51.2
	c-23.812,0-43.116-19.304-43.116-43.116V105.095c0-23.812,19.304-43.116,43.116-43.116h409.6
	C484.612,61.979,503.916,81.283,503.916,105.095z"/>
<path style="fill:#FFF6B6;" d="M460.8,115.874v323.368c0,11.906-9.651,21.558-21.558,21.558H72.758
	c-11.906,0-21.558-9.651-21.558-21.558V115.874c0-11.906,9.651-21.558,21.558-21.558h366.484
	C451.148,94.316,460.8,103.967,460.8,115.874z"/>
<path style="fill:#FF8355;" d="M460.8,61.979v53.895H51.2V61.979c0-11.906,9.651-21.558,21.558-21.558h366.484
	C451.148,40.421,460.8,50.073,460.8,61.979z M153.6,223.663h-43.116c-8.929,0-16.168,7.239-16.168,16.168S101.555,256,110.484,256
	H153.6c8.929,0,16.168-7.239,16.168-16.168S162.529,223.663,153.6,223.663z M401.516,299.116H358.4
	c-8.929,0-16.168,7.239-16.168,16.168c0,8.929,7.239,16.168,16.168,16.168h43.116c8.929,0,16.168-7.239,16.168-16.168
	C417.684,306.355,410.445,299.116,401.516,299.116z"/>
<path style="fill:#F4C064;" d="M126.653,56.589V24.253c0-8.929,7.239-16.168,16.168-16.168s16.168,7.239,16.168,16.168v32.337
	c0,8.929-7.239,16.168-16.168,16.168S126.653,65.519,126.653,56.589z M369.179,72.758c8.929,0,16.168-7.239,16.168-16.168V24.253
	c0-8.929-7.239-16.168-16.168-16.168c-8.929,0-16.168,7.239-16.168,16.168v32.337C353.01,65.519,360.25,72.758,369.179,72.758z
	 M256,72.758c8.929,0,16.168-7.239,16.168-16.168V24.253c0-8.929-7.239-16.168-16.168-16.168s-16.168,7.239-16.168,16.168v32.337
	C239.832,65.519,247.071,72.758,256,72.758z M153.6,374.568h-43.116c-8.929,0-16.168,7.239-16.168,16.168
	c0,8.929,7.239,16.168,16.168,16.168H153.6c8.929,0,16.168-7.239,16.168-16.168C169.768,381.808,162.529,374.568,153.6,374.568z
	 M153.6,299.116h-43.116c-8.929,0-16.168,7.239-16.168,16.168c0,8.929,7.239,16.168,16.168,16.168H153.6
	c8.929,0,16.168-7.239,16.168-16.168C169.768,306.355,162.529,299.116,153.6,299.116z M358.4,256h43.116
	c8.929,0,16.168-7.239,16.168-16.168s-7.239-16.168-16.168-16.168H358.4c-8.929,0-16.168,7.239-16.168,16.168S349.471,256,358.4,256
	z M277.558,374.568h-43.116c-8.929,0-16.168,7.239-16.168,16.168c0,8.929,7.239,16.168,16.168,16.168h43.116
	c8.929,0,16.168-7.239,16.168-16.168C293.726,381.808,286.487,374.568,277.558,374.568z M401.516,374.568H358.4
	c-8.929,0-16.168,7.239-16.168,16.168c0,8.929,7.239,16.168,16.168,16.168h43.116c8.929,0,16.168-7.239,16.168-16.168
	C417.684,381.808,410.445,374.568,401.516,374.568z M277.558,299.116h-43.116c-8.929,0-16.168,7.239-16.168,16.168
	c0,8.929,7.239,16.168,16.168,16.168h43.116c8.929,0,16.168-7.239,16.168-16.168C293.726,306.355,286.487,299.116,277.558,299.116z
	 M277.558,223.663h-43.116c-8.929,0-16.168,7.239-16.168,16.168S225.513,256,234.442,256h43.116c8.929,0,16.168-7.239,16.168-16.168
	S286.487,223.663,277.558,223.663z"/>
<path d="M467.898,54.398c-3.359-12.684-14.931-22.061-28.656-22.061h-45.811v-8.084C393.432,10.879,382.552,0,369.179,0
	c-13.373,0-24.253,10.879-24.253,24.253v8.084h-64.674v-8.084C280.253,10.879,269.373,0,256,0s-24.253,10.879-24.253,24.253v8.084
	h-64.674v-8.084C167.074,10.879,156.194,0,142.821,0c-13.373,0-24.253,10.879-24.253,24.253v8.084H72.758
	c-13.725,0-25.297,9.378-28.656,22.061C19.22,57.866,0,79.273,0,105.095V460.8C0,489.031,22.969,512,51.2,512h409.6
	c28.231,0,51.2-22.969,51.2-51.2V105.095C512,79.273,492.78,57.866,467.898,54.398z M361.095,24.253
	c0-4.458,3.626-8.084,8.084-8.084s8.084,3.626,8.084,8.084v32.337c0,4.458-3.626,8.084-8.084,8.084s-8.084-3.626-8.084-8.084V24.253
	z M247.916,24.253c0-4.458,3.626-8.084,8.084-8.084s8.084,3.626,8.084,8.084v32.337c0,4.458-3.626,8.084-8.084,8.084
	s-8.084-3.626-8.084-8.084V24.253z M134.737,24.253c0-4.458,3.626-8.084,8.084-8.084s8.084,3.626,8.084,8.084v32.337
	c0,4.458-3.626,8.084-8.084,8.084s-8.084-3.626-8.084-8.084V24.253z M495.832,460.8c0,19.316-15.716,35.032-35.032,35.032H51.2
	c-19.316,0-35.032-15.716-35.032-35.032V105.095c0-16.534,11.517-30.419,26.947-34.08v368.227c0,16.345,13.297,29.642,29.642,29.642
	h300.733c4.465,0,8.084-3.62,8.084-8.084c0-4.465-3.62-8.084-8.084-8.084H72.758c-7.43,0-13.474-6.044-13.474-13.474V123.958
	h369.179c4.465,0,8.084-3.62,8.084-8.084s-3.62-8.084-8.084-8.084H59.284V61.979c0-7.43,6.044-13.474,13.474-13.474h45.811v8.084
	c0,13.373,10.879,24.253,24.253,24.253c13.373,0,24.253-10.879,24.253-24.253v-8.084h64.674v8.084
	c0,13.373,10.879,24.253,24.253,24.253s24.253-10.879,24.253-24.253v-8.084h64.674v8.084c0,13.373,10.879,24.253,24.253,24.253
	c13.373,0,24.253-10.879,24.253-24.253v-8.084h45.811c7.43,0,13.474,6.044,13.474,13.474v377.263c0,7.43-6.044,13.474-13.474,13.474
	h-32.337c-4.465,0-8.084,3.62-8.084,8.084c0,4.465,3.62,8.084,8.084,8.084h32.337c16.345,0,29.642-13.297,29.642-29.642V71.015
	c15.43,3.661,26.947,17.546,26.947,34.08V460.8z M328.758,169.768c0,4.465-3.62,8.084-8.084,8.084H191.326
	c-4.465,0-8.084-3.62-8.084-8.084c0-4.465,3.62-8.084,8.084-8.084h129.347C325.138,161.684,328.758,165.304,328.758,169.768z
	 M277.558,215.579h-43.116c-13.373,0-24.253,10.879-24.253,24.253c0,13.373,10.879,24.253,24.253,24.253h43.116
	c13.373,0,24.253-10.879,24.253-24.253C301.811,226.458,290.931,215.579,277.558,215.579z M277.558,247.916h-43.116
	c-4.458,0-8.084-3.626-8.084-8.084s3.626-8.084,8.084-8.084h43.116c4.458,0,8.084,3.626,8.084,8.084
	S282.016,247.916,277.558,247.916z M153.6,215.579h-43.116c-13.373,0-24.253,10.879-24.253,24.253
	c0,13.373,10.879,24.253,24.253,24.253H153.6c13.373,0,24.253-10.879,24.253-24.253C177.853,226.458,166.973,215.579,153.6,215.579z
	 M153.6,247.916h-43.116c-4.458,0-8.084-3.626-8.084-8.084s3.626-8.084,8.084-8.084H153.6c4.458,0,8.084,3.626,8.084,8.084
	S158.058,247.916,153.6,247.916z M358.4,264.084h43.116c13.373,0,24.253-10.879,24.253-24.253c0-13.373-10.879-24.253-24.253-24.253
	H358.4c-13.373,0-24.253,10.879-24.253,24.253C334.147,253.205,345.027,264.084,358.4,264.084z M358.4,231.747h43.116
	c4.458,0,8.084,3.626,8.084,8.084s-3.626,8.084-8.084,8.084H358.4c-4.458,0-8.084-3.626-8.084-8.084S353.942,231.747,358.4,231.747z
	 M277.558,291.032h-43.116c-13.373,0-24.253,10.879-24.253,24.253c0,13.373,10.879,24.253,24.253,24.253h43.116
	c13.373,0,24.253-10.879,24.253-24.253C301.811,301.911,290.931,291.032,277.558,291.032z M277.558,323.368h-43.116
	c-4.458,0-8.084-3.626-8.084-8.084c0-4.458,3.626-8.084,8.084-8.084h43.116c4.458,0,8.084,3.626,8.084,8.084
	C285.642,319.742,282.016,323.368,277.558,323.368z M153.6,291.032h-43.116c-13.373,0-24.253,10.879-24.253,24.253
	c0,13.373,10.879,24.253,24.253,24.253H153.6c13.373,0,24.253-10.879,24.253-24.253C177.853,301.911,166.973,291.032,153.6,291.032z
	 M153.6,323.368h-43.116c-4.458,0-8.084-3.626-8.084-8.084c0-4.458,3.626-8.084,8.084-8.084H153.6c4.458,0,8.084,3.626,8.084,8.084
	C161.684,319.742,158.058,323.368,153.6,323.368z M358.4,339.537h43.116c13.373,0,24.253-10.879,24.253-24.253
	c0-13.373-10.879-24.253-24.253-24.253H358.4c-13.373,0-24.253,10.879-24.253,24.253C334.147,328.658,345.027,339.537,358.4,339.537
	z M358.4,307.2h43.116c4.458,0,8.084,3.626,8.084,8.084c0,4.458-3.626,8.084-8.084,8.084H358.4c-4.458,0-8.084-3.626-8.084-8.084
	C350.316,310.826,353.942,307.2,358.4,307.2z M277.558,366.484h-43.116c-13.373,0-24.253,10.879-24.253,24.253
	c0,13.373,10.879,24.253,24.253,24.253h43.116c13.373,0,24.253-10.879,24.253-24.253
	C301.811,377.363,290.931,366.484,277.558,366.484z M277.558,398.821h-43.116c-4.458,0-8.084-3.626-8.084-8.084
	s3.626-8.084,8.084-8.084h43.116c4.458,0,8.084,3.626,8.084,8.084S282.016,398.821,277.558,398.821z M153.6,366.484h-43.116
	c-13.373,0-24.253,10.879-24.253,24.253c0,13.373,10.879,24.253,24.253,24.253H153.6c13.373,0,24.253-10.879,24.253-24.253
	C177.853,377.363,166.973,366.484,153.6,366.484z M153.6,398.821h-43.116c-4.458,0-8.084-3.626-8.084-8.084s3.626-8.084,8.084-8.084
	H153.6c4.458,0,8.084,3.626,8.084,8.084S158.058,398.821,153.6,398.821z M425.768,390.737c0-13.373-10.879-24.253-24.253-24.253
	H358.4c-13.373,0-24.253,10.879-24.253,24.253c0,13.373,10.879,24.253,24.253,24.253h43.116
	C414.889,414.989,425.768,404.11,425.768,390.737z M350.316,390.737c0-4.458,3.626-8.084,8.084-8.084h43.116
	c4.458,0,8.084,3.626,8.084,8.084s-3.626,8.084-8.084,8.084H358.4C353.942,398.821,350.316,395.195,350.316,390.737z"/>
</svg>